<?xml version="1.0" standalone="no"?>
<!DOCTYPE svg PUBLIC "-//W3C//DTD SVG 20010904//EN"
 "http://www.w3.org/TR/2001/REC-SVG-20010904/DTD/svg10.dtd">
<svg version="1.0" xmlns="http://www.w3.org/2000/svg"
 width="1200.000000pt" height="1200.000000pt" viewBox="0 0 1200.000000 1200.000000"
 preserveAspectRatio="xMidYMid meet">
<metadata>
Created by potrace 1.11, written by Peter Selinger 2001-2013
</metadata>
<g transform="translate(0.000000,1200.000000) scale(0.100000,-0.100000)"
fill="#000000" stroke="none">
<path d="M8648 11863 c6 -2 18 -2 25 0 6 3 1 5 -13 5 -14 0 -19 -2 -12 -5z"/>
<path d="M8612 11804 c7 -7 380 -6 387 1 2 3 -85 5 -194 5 -109 0 -196 -3
-193 -6z"/>
<path d="M8713 11733 c59 -2 154 -2 210 0 56 1 8 3 -108 3 -115 0 -161 -2
-102 -3z"/>
<path d="M8643 11663 c9 -2 25 -2 35 0 9 3 1 5 -18 5 -19 0 -27 -2 -17 -5z"/>
<path d="M8628 11603 c12 -2 32 -2 45 0 12 2 2 4 -23 4 -25 0 -35 -2 -22 -4z"/>
<path d="M8738 11603 c12 -2 30 -2 40 0 9 3 -1 5 -23 4 -22 0 -30 -2 -17 -4z"/>
<path d="M8638 11533 c12 -2 30 -2 40 0 9 3 -1 5 -23 4 -22 0 -30 -2 -17 -4z"/>
<path d="M6176 11158 c-3 -13 -7 -59 -10 -103 -2 -44 -11 -157 -19 -251 -18
-201 -32 -235 -111 -273 -91 -42 -101 -31 -115 134 -9 100 -23 199 -37 265
-11 50 -24 -6 -35 -152 -6 -79 -15 -188 -19 -243 -4 -56 -22 -153 -40 -220
-17 -66 -36 -140 -41 -165 -5 -24 -29 -87 -53 -140 -25 -52 -67 -144 -94 -205
-28 -60 -93 -197 -146 -303 -53 -106 -96 -194 -96 -197 0 -3 -39 -87 -86 -187
-51 -109 -107 -211 -138 -253 -110 -147 -168 -238 -207 -321 -22 -48 -52 -102
-66 -121 -28 -37 -23 -51 22 -54 28 -3 49 -6 55 -8 3 -2 12 -4 20 -6 8 -2 40
-12 70 -23 78 -29 122 -33 182 -20 29 6 59 11 66 11 6 0 12 4 12 10 0 5 6 7
13 4 6 -2 30 2 52 10 172 61 472 53 626 -17 l44 -20 -382 0 -383 0 0 -27 c-1
-33 -22 -261 -50 -543 -32 -324 -57 -581 -74 -760 -8 -91 -20 -199 -26 -240
-10 -79 -30 -293 -34 -370 -2 -25 -6 -78 -11 -117 l-8 -73 385 0 385 0 12 88
c15 108 38 332 85 817 8 77 17 158 21 180 3 22 13 110 20 195 16 166 49 492
69 680 18 161 17 158 79 157 29 -1 68 1 88 6 l37 8 -4 -33 c-2 -18 -12 -135
-23 -259 -10 -125 -21 -235 -24 -245 -3 -11 -11 -86 -17 -169 -6 -82 -15 -181
-21 -220 -5 -38 -16 -144 -24 -235 -8 -91 -24 -257 -35 -370 -51 -529 -57
-595 -56 -597 2 -2 713 -5 762 -3 7 0 14 26 17 63 7 75 39 404 67 687 11 113
27 270 34 350 19 199 37 369 42 407 4 29 9 32 42 35 l37 3 6 80 c4 44 12 145
18 225 6 80 14 175 17 212 l5 68 -418 2 c-371 3 -413 5 -373 17 25 7 56 17 70
22 14 5 45 12 70 15 25 3 59 8 75 10 61 10 462 12 540 3 186 -21 219 -21 233
2 11 16 11 32 1 77 -16 75 -57 128 -249 322 -173 175 -204 210 -238 278 -14
26 -31 60 -39 75 -8 16 -12 31 -9 34 3 3 -1 21 -9 39 -8 19 -10 34 -5 34 5 0
-2 11 -16 25 -14 15 -23 32 -20 40 3 8 1 15 -4 15 -11 0 -38 82 -45 140 -13
92 -65 195 -141 280 -36 40 -46 60 -149 304 -74 174 -66 130 -99 516 -8 102
-20 237 -26 300 -6 63 -15 158 -20 210 -4 52 -8 98 -9 103 -2 16 -21 5 -25
-15z"/>
<path d="M2428 8302 l-448 -2 0 -46 c0 -25 -4 -75 -10 -112 -5 -37 -17 -143
-25 -237 -16 -173 -42 -437 -69 -690 -8 -77 -22 -212 -30 -300 -8 -88 -20
-200 -26 -250 -6 -49 -17 -162 -25 -250 -8 -88 -17 -177 -21 -197 l-7 -38 385
0 384 0 13 103 c6 56 19 174 27 262 26 281 88 909 104 1060 5 44 9 88 9 98 1
16 17 17 191 17 l190 0 0 -42 c0 -24 -7 -110 -16 -193 -8 -82 -23 -240 -34
-350 -11 -110 -27 -270 -35 -355 -8 -85 -17 -166 -20 -180 -2 -14 -11 -104
-20 -200 -8 -96 -18 -185 -21 -197 l-6 -23 384 0 385 0 11 73 c7 39 19 151 28
247 33 355 57 573 75 690 8 56 29 270 46 473 l5 57 190 0 191 0 -6 -52 c-4
-29 -11 -109 -17 -178 -6 -69 -14 -132 -17 -140 -2 -8 -11 -80 -19 -160 -17
-186 -48 -499 -74 -760 -12 -113 -27 -270 -35 -350 -7 -80 -18 -181 -24 -225
-5 -44 -12 -115 -16 -158 l-6 -77 393 2 393 3 7 95 c4 52 15 156 23 230 8 74
20 191 25 260 6 69 15 152 20 185 4 33 11 103 14 155 4 52 11 127 17 165 5 39
17 144 25 235 8 91 24 251 34 355 11 105 26 260 34 345 8 85 19 187 25 225 5
39 12 115 16 170 4 55 10 114 15 130 5 17 10 53 12 80 l5 50 -1101 0 c-606 0
-1302 -1 -1548 -3z"/>
<path d="M7380 8252 c0 -31 -5 -95 -10 -142 -6 -47 -17 -164 -25 -260 -22
-265 -43 -490 -49 -519 -3 -14 -13 -109 -21 -211 -8 -102 -17 -192 -20 -200
-2 -8 -9 -76 -15 -150 -6 -74 -15 -171 -21 -215 -15 -121 -35 -375 -29 -375 3
0 176 -1 385 -1 l379 -1 9 29 c4 15 17 134 27 263 19 229 26 297 55 525 8 61
17 151 20 200 3 50 10 119 16 155 5 36 17 139 25 230 8 91 19 210 24 265 11
115 38 449 36 451 0 1 -178 4 -393 7 l-393 6 0 -57z"/>
<path d="M8361 8188 c-15 -135 -35 -322 -55 -513 -8 -77 -18 -156 -21 -175 -3
-19 -15 -145 -26 -280 -11 -135 -29 -337 -40 -450 -11 -113 -26 -268 -33 -345
-8 -77 -17 -164 -21 -193 l-8 -52 869 2 869 3 7 105 c12 201 29 415 34 443 l6
27 -476 0 -476 0 6 83 c3 45 8 89 11 97 2 8 13 107 23 220 11 113 26 273 34
355 9 83 16 162 16 178 l0 27 194 0 193 0 -23 -67 c-12 -38 -41 -120 -64 -183
-23 -63 -47 -133 -55 -155 -7 -22 -32 -92 -55 -155 -36 -101 -70 -200 -70
-208 0 -1 173 -1 385 0 l386 3 35 100 c20 55 51 145 70 200 19 55 39 109 44
120 4 11 15 40 23 65 9 25 34 97 57 160 35 95 44 138 55 245 7 72 18 177 24
235 6 58 13 131 16 163 l6 57 -964 0 -964 0 -12 -112z"/>
<path d="M3300 5835 c-85 -7 -193 -18 -240 -24 -47 -6 -152 -17 -235 -26 -140
-14 -293 -32 -460 -55 -38 -6 -178 -12 -310 -15 -132 -3 -278 -10 -325 -16
-124 -15 -291 -56 -401 -99 -158 -62 -242 -78 -469 -90 -113 -7 -209 -16 -214
-21 -18 -17 189 -8 403 17 55 7 187 -11 196 -27 3 -4 -4 -11 -17 -13 -90 -19
-173 -28 -305 -33 -84 -3 -153 -10 -153 -15 0 -4 8 -8 18 -8 9 0 103 -2 207
-3 143 -3 201 -7 235 -19 259 -93 340 -109 580 -113 504 -11 852 -2 1085 26
127 15 305 12 339 -6 23 -12 36 -13 59 -5 17 5 45 10 64 10 20 0 32 4 28 10
-4 6 8 11 27 12 93 4 111 7 118 18 4 7 13 9 20 5 8 -5 11 -4 7 2 -4 6 9 10 30
11 20 1 41 6 47 12 5 5 20 10 32 10 22 0 68 39 86 75 10 18 10 19 -6 6 -16
-13 -17 -12 -11 15 4 16 9 36 11 45 3 9 -2 22 -11 29 -8 7 -15 27 -15 44 0 17
-7 40 -15 50 -8 10 -12 23 -9 27 3 5 0 9 -6 9 -7 0 -10 7 -6 15 3 8 1 15 -4
15 -5 0 -9 8 -10 18 -2 52 -6 70 -12 65 -5 -2 -8 10 -8 26 l0 31 -97 -1 c-54
-1 -168 -7 -253 -14z"/>
<path d="M9146 5688 c-8 -26 -34 -313 -29 -320 2 -5 26 -8 54 -8 l49 0 0 -44
c0 -24 -7 -110 -15 -192 -8 -82 -22 -221 -30 -309 -27 -276 -55 -555 -70 -698
-8 -75 -15 -153 -15 -172 l0 -35 220 0 c169 0 220 3 220 13 0 6 9 104 20 217
11 113 20 208 20 213 0 9 217 9 224 -1 2 -4 0 -45 -5 -92 -32 -305 -49 -475
-54 -545 -4 -44 -9 -90 -12 -102 l-5 -23 226 0 c192 0 226 2 226 15 0 8 9 92
19 187 11 95 27 252 36 348 9 96 25 253 36 348 10 95 19 179 19 187 0 12 -20
15 -110 15 -60 0 -110 3 -110 6 0 3 59 102 130 221 72 118 130 216 130 219 0
2 -100 4 -223 4 l-222 0 -129 -220 c-71 -121 -130 -219 -131 -218 -2 2 5 86
16 188 10 102 26 255 34 340 9 85 22 209 30 275 8 66 15 136 15 157 l0 38
-280 0 c-216 0 -281 -3 -284 -12z"/>
<path d="M10576 5653 c-12 -30 -4 -33 88 -33 84 0 97 -2 123 -24 15 -12 40
-25 56 -28 23 -4 27 -2 27 18 0 19 -9 25 -52 38 -29 8 -71 18 -93 21 -22 4
-47 9 -55 13 -32 12 -89 10 -94 -5z"/>
<path d="M10830 5475 c-48 -17 -45 -38 5 -39 36 -1 40 1 43 27 4 30 2 30 -48
12z"/>
<path d="M10710 5384 c-30 -7 -63 -18 -72 -24 -10 -5 -29 -10 -43 -10 -25 0
-35 -23 -15 -35 15 -9 161 22 205 45 21 11 47 20 57 20 9 0 20 5 23 10 9 15
-90 11 -155 -6z"/>
<path d="M4166 5308 c-14 -135 -35 -350 -41 -413 -3 -38 -12 -131 -20 -205 -8
-74 -22 -216 -30 -315 -9 -99 -23 -239 -31 -312 -8 -73 -14 -137 -14 -143 0
-6 38 -10 103 -10 169 0 393 -13 372 -21 -11 -4 -51 -8 -88 -8 -80 -1 -79 10
-15 -141 l40 -94 -16 -61 c-35 -127 -38 -154 -38 -305 -1 -147 4 -195 33 -350
10 -49 12 -270 10 -913 -2 -808 2 -998 21 -852 13 103 28 669 31 1150 1 391
-1 476 -15 565 -29 182 -41 355 -34 484 7 136 16 188 33 193 11 4 41 -52 58
-107 11 -34 55 -91 66 -84 14 8 11 76 -6 130 -32 107 -56 227 -51 250 5 17 13
24 30 24 27 0 46 -39 46 -92 0 -28 2 -29 42 -26 38 2 44 0 58 -27 8 -16 18
-34 23 -40 4 -5 30 -44 57 -85 75 -113 85 -124 105 -116 16 6 17 15 11 86 l-7
80 44 0 c25 0 61 -7 82 -16 l37 -15 -6 -82 c-15 -197 -18 -501 -7 -665 7 -95
14 -302 17 -459 3 -207 9 -303 19 -344 8 -31 15 -66 15 -78 0 -12 9 -47 20
-79 23 -65 43 -170 42 -223 0 -19 -10 -62 -22 -95 -49 -137 -91 -339 -92 -444
-1 -50 21 -221 32 -245 24 -57 38 -165 21 -165 -5 0 -2 -14 6 -31 12 -24 13
-33 3 -39 -8 -5 -9 -9 -1 -11 5 -2 12 -20 15 -39 10 -75 55 -322 60 -327 9 -9
18 126 14 230 -2 67 1 107 7 107 6 0 3 5 -5 10 -13 9 -13 11 0 20 9 6 10 10 3
10 -6 0 -14 15 -18 32 -4 18 -12 42 -19 53 -23 38 -59 287 -57 395 2 104 21
241 43 300 11 30 27 98 37 151 17 92 17 100 -1 220 -10 68 -27 151 -37 184
-27 86 -33 131 -37 300 -5 212 -21 472 -39 665 -17 173 -15 340 7 518 8 68 15
92 26 92 24 0 176 -105 189 -131 14 -29 76 -331 97 -479 8 -58 23 -150 31
-205 9 -55 22 -133 28 -174 7 -42 16 -73 22 -70 6 2 18 26 27 53 26 72 33 76
68 39 17 -18 30 -38 30 -46 0 -22 31 -106 41 -113 6 -3 16 -1 24 6 10 8 15 8
20 0 11 -17 32 -127 39 -205 9 -96 69 -416 82 -437 10 -16 42 -8 56 15 8 12
28 58 44 102 25 70 82 155 103 155 11 0 31 -160 31 -250 0 -81 4 -139 36 -470
14 -145 22 -221 43 -380 l8 -65 2 56 c1 54 -34 403 -44 444 -3 11 -12 110 -21
220 -15 197 -12 399 7 410 10 7 38 -47 79 -152 60 -152 73 -169 111 -145 16
10 19 9 23 -11 20 -97 50 -216 66 -260 10 -28 26 -86 34 -127 22 -107 39 -378
32 -492 -7 -103 5 -139 24 -68 5 22 15 57 20 79 27 104 -1 476 -44 588 -8 21
-26 81 -40 133 -33 124 -55 492 -37 610 7 41 16 109 21 150 15 119 27 152 53
148 16 -2 26 5 38 29 24 48 39 63 63 63 18 0 26 -12 45 -70 12 -39 26 -68 31
-65 4 3 11 33 15 67 7 61 34 142 35 104 0 -13 5 -16 17 -12 9 4 37 10 60 13
24 3 41 8 38 11 -11 11 19 32 49 33 l31 1 -30 8 c-16 4 -23 9 -15 10 8 1 4 5
-10 9 l-25 7 1 200 c0 109 4 240 8 289 3 50 6 100 6 112 0 12 5 25 10 28 6 3
10 20 10 36 0 16 6 32 14 35 8 3 12 13 9 25 -4 12 3 29 17 44 13 14 20 25 15
25 -4 0 0 9 10 20 10 11 24 20 31 20 8 0 19 9 26 20 19 29 27 25 22 -12 -2
-18 -7 -55 -10 -83 -4 -30 3 -105 16 -190 22 -145 27 -339 12 -495 l-7 -75
-40 -6 c-22 -3 -31 -7 -20 -9 13 -2 8 -5 -15 -10 l-35 -7 42 -2 c23 0 45 -7
50 -13 4 -7 11 -94 15 -193 4 -99 11 -196 16 -215 7 -23 8 26 4 146 -6 214 4
274 48 274 19 0 21 3 11 9 -11 7 -7 10 15 14 23 3 21 4 -12 6 -24 0 -44 7 -47
14 -3 7 0 38 5 68 14 73 3 322 -21 484 -18 126 -19 173 -6 244 8 45 36 101 50
101 6 0 18 19 26 43 9 24 26 47 40 54 38 20 93 16 114 -7 18 -20 18 -23 -4
-98 -13 -42 -26 -105 -28 -139 -7 -76 6 -82 56 -27 18 19 34 34 36 32 2 -2 -3
-34 -11 -72 -21 -102 -33 -309 -23 -401 4 -44 17 -123 27 -175 20 -102 20
-116 -6 -123 -15 -4 -14 -5 1 -6 10 0 15 -5 12 -11 -3 -5 -1 -10 4 -10 6 0 11
-8 11 -18 0 -10 4 -22 10 -28 31 -31 40 -644 14 -979 -8 -110 -19 -236 -24
-280 -30 -261 -37 -598 -14 -674 16 -54 23 18 23 255 1 175 7 294 23 440 19
173 22 257 22 649 1 248 -1 494 -3 548 -3 74 -1 101 9 107 10 6 9 9 -5 11 -18
4 -34 53 -75 231 -30 129 -26 277 9 443 42 191 51 218 129 354 40 69 69 127
66 130 -2 3 -28 6 -57 7 -225 7 -498 34 -582 58 -47 13 -138 56 -132 62 2 2
97 4 212 5 116 1 215 4 221 6 7 3 14 46 18 111 4 59 9 135 12 170 l6 62 -27 0
c-20 0 -25 4 -21 18 2 9 9 67 15 127 6 61 16 160 21 220 6 61 14 127 17 147
l5 37 77 3 76 3 12 120 c6 66 14 141 17 168 l5 47 -303 0 -303 0 -6 -37 c-3
-21 -9 -72 -12 -113 -3 -41 -15 -158 -25 -260 -10 -102 -29 -282 -40 -400 -30
-296 -41 -380 -51 -380 -5 0 -19 14 -31 31 -13 17 -33 35 -46 40 -13 5 -20 13
-17 19 3 5 -2 11 -12 11 -69 5 -83 1 -134 -36 -72 -52 -119 -85 -123 -85 -2 0
8 30 21 68 13 37 28 78 32 92 11 32 296 807 309 840 26 63 72 190 72 200 0 6
-58 10 -165 10 -185 0 -172 5 -199 -83 -8 -23 -32 -94 -55 -157 -66 -181 -112
-312 -122 -348 -12 -37 -29 -34 -29 6 0 15 -7 63 -15 107 -8 44 -24 139 -36
210 -11 72 -26 159 -33 195 l-12 65 -171 3 -172 2 -9 -32 c-6 -18 -36 -105
-67 -193 -31 -88 -75 -213 -98 -277 -24 -69 -44 -113 -48 -105 -4 7 -14 57
-23 112 -24 158 -46 294 -62 374 -8 40 -14 84 -14 97 l0 24 -225 0 -225 0 0
-25 c0 -14 6 -58 14 -98 13 -65 24 -130 71 -407 8 -47 24 -139 35 -205 30
-176 48 -283 58 -348 l9 -58 -23 22 c-13 12 -22 25 -21 28 1 4 -7 16 -18 28
-40 43 -97 173 -103 235 -2 26 -8 45 -13 42 -5 -3 -6 2 -3 10 3 9 1 16 -5 16
-6 0 -11 11 -11 24 0 39 -35 111 -64 129 -41 27 -76 39 -73 24 1 -7 -6 -11
-15 -11 -10 1 -19 -6 -20 -15 -2 -25 -6 -46 -8 -51 -7 -16 -5 -128 2 -124 4 3
8 -4 8 -16 0 -12 7 -34 15 -49 8 -16 11 -31 8 -35 -4 -3 -55 -6 -115 -6 -99 0
-109 2 -104 18 2 9 10 69 16 132 21 221 31 315 36 358 l6 42 109 0 c128 0 113
-22 132 193 l12 147 -112 0 c-85 0 -111 3 -108 13 2 6 6 56 10 110 l6 97 -225
0 -225 0 -5 -52z m1554 -1113 c6 -44 18 -115 26 -159 8 -43 14 -91 14 -106 0
-28 0 -28 -42 -18 -24 5 -69 7 -100 5 l-58 -4 7 26 c6 24 50 150 104 299 13
36 26 57 30 50 3 -7 12 -49 19 -93z m-976 -26 c-6 -48 -14 -48 -14 0 0 23 4
40 9 37 5 -3 7 -20 5 -37z m-7 -71 c-3 -8 -6 -5 -6 6 -1 11 2 17 5 13 3 -3 4
-12 1 -19z m723 -208 c-34 -11 -200 -11 -225 0 -12 5 31 8 115 8 82 0 125 -3
110 -8z m685 -8 c-51 -28 -242 -23 -320 9 -11 4 61 8 165 8 178 0 184 0 155
-17z"/>
<path d="M8740 5290 c20 -13 47 -13 55 0 4 6 -9 10 -32 10 -28 0 -34 -3 -23
-10z"/>
<path d="M1676 5088 c-4 -29 -11 -100 -16 -158 -9 -109 -59 -606 -85 -860 -8
-80 -15 -148 -15 -153 0 -4 100 -6 223 -5 l222 3 7 80 c23 255 79 799 83 803
2 2 37 6 79 9 89 7 82 -6 91 160 3 62 8 126 11 142 l7 31 -301 0 -300 0 -6
-52z"/>
<path d="M2327 4938 c-17 -196 -27 -294 -67 -688 -10 -102 -22 -220 -25 -262
l-7 -78 220 0 220 0 6 28 c3 15 12 97 21 182 8 85 22 220 30 300 8 80 24 240
35 355 12 116 24 245 28 288 l8 77 -226 0 -226 0 -17 -202z"/>
<path d="M2906 5068 c-7 -77 -36 -367 -61 -608 -8 -80 -20 -197 -25 -260 -6
-63 -15 -151 -20 -195 -6 -44 -10 -83 -10 -87 0 -5 200 -8 445 -8 l445 0 0
-38 c0 -20 -5 -53 -10 -72 -15 -52 -40 -309 -39 -392 l2 -73 8 75 c4 41 12
125 18 185 5 61 15 124 22 140 l12 30 17 -65 c16 -57 18 -60 19 -29 1 19 -8
77 -19 128 -11 52 -17 97 -14 102 3 5 31 9 64 9 l58 0 6 58 c14 124 24 267 19
272 -2 3 -133 4 -290 2 l-285 -2 6 42 c3 24 10 95 16 158 12 134 28 281 36
328 l5 32 104 0 c58 0 105 -3 105 -8 0 -6 -93 -278 -134 -391 -9 -24 -16 -45
-16 -47 0 -2 100 -4 223 -4 l223 0 48 133 c112 304 113 308 130 455 9 78 16
156 16 172 l0 30 -559 0 -559 0 -6 -72z"/>
<path d="M7390 5131 c0 -5 -4 -53 -10 -107 -5 -55 -12 -143 -14 -197 -3 -54
-12 -164 -20 -245 -45 -439 -65 -665 -61 -672 5 -8 432 -7 440 1 3 4 10 55 15
115 5 60 16 177 24 259 9 83 23 222 32 310 9 88 24 237 35 332 10 94 19 181
19 192 0 21 -3 21 -230 21 -128 0 -230 -4 -230 -9z"/>
<path d="M7955 5073 c-3 -38 -15 -158 -26 -268 -34 -341 -48 -484 -64 -655 -8
-91 -17 -182 -19 -202 l-4 -38 222 0 223 0 12 103 c6 56 18 174 26 262 9 88
18 171 20 185 3 14 9 77 15 140 6 63 13 134 16 158 l6 42 108 0 109 0 -4 -52
c-3 -29 -7 -79 -9 -110 l-5 -58 220 0 219 0 4 23 c3 12 8 49 11 82 3 33 15
134 25 225 11 91 20 180 20 198 l0 32 -559 0 -559 0 -7 -67z"/>
<path d="M11845 4470 c-4 -6 5 -10 20 -10 15 0 24 4 20 10 -3 6 -12 10 -20 10
-8 0 -17 -4 -20 -10z"/>
<path d="M11910 4471 c0 -5 20 -9 45 -9 25 0 45 4 45 9 0 5 -20 9 -45 9 -25 0
-45 -4 -45 -9z"/>
<path d="M7532 3878 c-19 -19 -14 -37 8 -31 11 3 20 14 20 24 0 22 -11 24 -28
7z"/>
<path d="M4006 3583 c-3 -147 -9 -286 -12 -308 -9 -67 14 -17 25 56 13 76 14
488 2 507 -5 8 -11 -102 -15 -255z"/>
<path d="M7556 3731 c-8 -20 -26 -77 -40 -128 -36 -129 -33 -192 6 -141 15 20
19 21 28 8 6 -10 9 -168 7 -435 l-2 -420 -30 -6 -30 -7 30 -2 c26 -1 27 -3 10
-10 -17 -7 -17 -9 -2 -9 9 -1 17 -9 17 -19 0 -10 4 -22 10 -28 5 -5 14 -41 19
-79 l8 -70 2 54 c1 59 19 132 36 143 6 5 4 8 -5 9 -10 0 -8 3 5 9 16 7 16 9 4
9 -9 1 -19 7 -22 15 -3 7 -7 188 -9 402 -5 618 -5 602 20 658 31 68 29 81 -12
82 -30 1 -36 -3 -50 -35z"/>
<path d="M8403 3675 c0 -22 2 -30 4 -17 2 12 2 30 0 40 -3 9 -5 -1 -4 -23z"/>
<path d="M4623 3593 c9 -2 25 -2 35 0 9 3 1 5 -18 5 -19 0 -27 -2 -17 -5z"/>
<path d="M4623 3523 c9 -2 23 -2 30 0 6 3 -1 5 -18 5 -16 0 -22 -2 -12 -5z"/>
<path d="M8404 3135 c0 -93 2 -133 3 -88 2 45 2 122 0 170 -1 48 -3 12 -3 -82z"/>
<path d="M3635 3150 c2 -41 9 -268 15 -505 6 -236 14 -450 17 -475 l6 -45 9
45 c15 74 -14 827 -37 970 l-14 85 4 -75z"/>
<path d="M888 2783 c12 -2 30 -2 40 0 9 3 -1 5 -23 4 -22 0 -30 -2 -17 -4z"/>
<path d="M10478 2675 c-3 -4 -286 -13 -411 -14 -38 -1 -66 -4 -63 -9 2 -4 40
-7 83 -6 43 0 92 -5 110 -12 18 -7 49 -10 72 -7 27 4 41 2 41 -6 0 -6 -7 -11
-16 -11 -8 0 -12 -4 -9 -10 4 -6 -6 -11 -22 -11 -15 -1 -1 -5 32 -9 33 -5 83
-11 110 -15 115 -15 115 -15 115 49 0 45 -3 55 -19 59 -11 3 -21 3 -23 2z"/>
<path d="M8670 2650 c0 -5 5 -10 10 -10 6 0 10 5 10 10 0 6 -4 10 -10 10 -5 0
-10 -4 -10 -10z"/>
<path d="M9938 2653 c7 -3 16 -2 19 1 4 3 -2 6 -13 5 -11 0 -14 -3 -6 -6z"/>
<path d="M10218 2603 c12 -2 30 -2 40 0 9 3 -1 5 -23 4 -22 0 -30 -2 -17 -4z"/>
<path d="M883 2583 c15 -2 37 -2 50 0 12 2 0 4 -28 4 -27 0 -38 -2 -22 -4z"/>
<path d="M4768 2383 c12 -2 30 -2 40 0 9 3 -1 5 -23 4 -22 0 -30 -2 -17 -4z"/>
<path d="M4768 2313 c12 -2 30 -2 40 0 9 3 -1 5 -23 4 -22 0 -30 -2 -17 -4z"/>
<path d="M4773 2243 c9 -2 25 -2 35 0 9 3 1 5 -18 5 -19 0 -27 -2 -17 -5z"/>
<path d="M4788 2043 c6 -2 18 -2 25 0 6 3 1 5 -13 5 -14 0 -19 -2 -12 -5z"/>
<path d="M4788 1973 c6 -2 18 -2 25 0 6 3 1 5 -13 5 -14 0 -19 -2 -12 -5z"/>
<path d="M4795 1910 c-3 -5 1 -10 9 -10 9 0 16 5 16 10 0 6 -4 10 -9 10 -6 0
-13 -4 -16 -10z"/>
<path d="M4773 1843 c9 -2 25 -2 35 0 9 3 1 5 -18 5 -19 0 -27 -2 -17 -5z"/>
<path d="M4773 1773 c9 -2 25 -2 35 0 9 3 1 5 -18 5 -19 0 -27 -2 -17 -5z"/>
<path d="M4798 1703 c7 -3 16 -2 19 1 4 3 -2 6 -13 5 -11 0 -14 -3 -6 -6z"/>
<path d="M4743 1573 c15 -2 39 -2 55 0 15 2 2 4 -28 4 -30 0 -43 -2 -27 -4z"/>
<path d="M4753 1503 c15 -2 37 -2 50 0 12 2 0 4 -28 4 -27 0 -38 -2 -22 -4z"/>
<path d="M4790 1440 c-12 -8 -10 -10 8 -10 13 0 20 4 17 10 -7 12 -6 12 -25 0z"/>
<path d="M4731 1376 c11 -10 89 -15 89 -6 0 5 -21 10 -47 10 -25 0 -44 -2 -42
-4z"/>
<path d="M4743 1303 c15 -2 39 -2 55 0 15 2 2 4 -28 4 -30 0 -43 -2 -27 -4z"/>
<path d="M4788 1263 c6 -2 18 -2 25 0 6 3 1 5 -13 5 -14 0 -19 -2 -12 -5z"/>
<path d="M4760 1240 c-34 -7 -34 -7 13 -9 26 0 47 4 47 9 0 11 -8 11 -60 0z"/>
<path d="M4740 1170 c0 -5 18 -10 40 -10 22 0 40 5 40 10 0 6 -18 10 -40 10
-22 0 -40 -4 -40 -10z"/>
<path d="M4731 1106 c11 -10 89 -15 89 -6 0 5 -21 10 -47 10 -25 0 -44 -2 -42
-4z"/>
<path d="M4743 1033 c15 -2 39 -2 55 0 15 2 2 4 -28 4 -30 0 -43 -2 -27 -4z"/>
<path d="M4765 970 l-50 -7 53 -1 c29 -1 52 2 52 8 0 6 -1 9 -2 8 -2 0 -25 -4
-53 -8z"/>
<path d="M4790 900 c0 -5 7 -10 15 -10 8 0 15 5 15 10 0 6 -7 10 -15 10 -8 0
-15 -4 -15 -10z"/>
<path d="M4753 833 c15 -2 37 -2 50 0 12 2 0 4 -28 4 -27 0 -38 -2 -22 -4z"/>
<path d="M4713 763 c20 -2 54 -2 75 0 20 2 3 4 -38 4 -41 0 -58 -2 -37 -4z"/>
<path d="M4775 700 c-30 -8 -30 -8 8 -9 20 0 37 4 37 9 0 11 -2 11 -45 0z"/>
<path d="M10713 702 c-96 -2 -133 -6 -134 -15 -2 -21 -2 -60 -1 -124 l2 -63
40 0 40 0 0 43 c0 56 9 87 26 87 13 0 79 -28 174 -75 42 -20 56 -21 205 -18
97 3 162 8 166 15 4 7 8 7 10 -1 3 -9 110 -13 382 -17 l377 -5 0 85 0 86 -177
0 c-98 0 -358 1 -578 3 -220 1 -460 1 -532 -1z m457 -122 c0 -5 -4 -10 -10
-10 -5 0 -10 5 -10 10 0 6 5 10 10 10 6 0 10 -4 10 -10z"/>
<path d="M4765 661 l30 -7 -34 -7 c-18 -4 -46 -7 -62 -7 -16 0 -29 -4 -29 -10
0 -6 29 -10 66 -10 41 0 63 -4 59 -10 -4 -6 -10 -8 -14 -5 -10 6 -8 -66 2 -82
4 -6 1 -14 -5 -16 -10 -4 -9 -8 2 -16 13 -10 13 -12 0 -21 -12 -8 -12 -10 -1
-10 9 0 10 -4 3 -12 -5 -7 -10 -61 -10 -120 l0 -107 31 -4 32 -4 -32 -1 c-22
-1 -33 -7 -33 -17 0 -8 6 -15 13 -15 8 0 8 -3 1 -8 -6 -4 -11 -44 -13 -89 l-2
-83 89 0 89 0 2 324 c1 249 -2 326 -11 333 -7 5 -56 10 -108 10 -55 0 -82 -2
-65 -6z m42 -317 c-3 -3 -12 -4 -19 -1 -8 3 -5 6 6 6 11 1 17 -2 13 -5z m23
-158 c0 -2 -7 -6 -15 -10 -8 -3 -15 -1 -15 4 0 6 7 10 15 10 8 0 15 -2 15 -4z"/>
<path d="M1083 633 c31 -2 83 -2 115 0 31 2 5 3 -58 3 -63 0 -89 -1 -57 -3z"/>
<path d="M1278 633 c7 -3 16 -2 19 1 4 3 -2 6 -13 5 -11 0 -14 -3 -6 -6z"/>
<path d="M1418 633 c7 -3 16 -2 19 1 4 3 -2 6 -13 5 -11 0 -14 -3 -6 -6z"/>
<path d="M1578 633 c12 -2 30 -2 40 0 9 3 -1 5 -23 4 -22 0 -30 -2 -17 -4z"/>
<path d="M1878 633 c127 -2 337 -2 465 0 127 1 23 2 -233 2 -256 0 -360 -1
-232 -2z"/>
<path d="M1418 563 c217 -2 568 -2 780 0 213 1 36 2 -393 2 -429 0 -603 -1
-387 -2z"/>
<path d="M4668 563 c6 -2 18 -2 25 0 6 3 1 5 -13 5 -14 0 -19 -2 -12 -5z"/>
<path d="M2585 500 c-3 -5 1 -10 10 -10 9 0 13 5 10 10 -3 6 -8 10 -10 10 -2
0 -7 -4 -10 -10z"/>
<path d="M2603 443 c-30 -11 -9 -23 40 -24 52 -2 52 -2 12 -9 -37 -6 -36 -11
5 -23 8 -2 -6 -7 -33 -11 -76 -12 -44 -26 61 -28 l97 -2 -100 -6 c-92 -6 -95
-6 -35 -9 36 -2 68 -3 73 -2 4 0 7 -3 7 -9 0 -5 -21 -11 -47 -11 -27 -1 -61
-5 -78 -9 -27 -7 -25 -8 18 -9 58 -1 62 -18 5 -24 -34 -3 -29 -4 20 -5 78 -2
75 -22 -3 -22 -94 0 -74 -20 22 -22 83 -2 84 -2 21 -5 -75 -4 -93 -22 -25 -24
41 -2 41 -2 -15 -11 -32 -6 -58 -14 -58 -19 0 -5 24 -10 53 -11 l52 -1 -55 -7
-55 -7 48 -1 c59 -2 54 -18 -8 -28 -45 -6 -53 -23 -12 -25 21 0 21 -1 2 -9
-16 -7 -12 -9 20 -10 39 -2 39 -2 10 -9 -17 -4 -40 -13 -50 -19 -17 -10 -14
-12 25 -13 38 -1 41 -2 20 -9 -16 -5 12 -8 80 -9 l105 -1 0 223 -1 222 -105 1
c-57 1 -110 -1 -116 -3z m157 -193 c-19 -13 -30 -13 -30 0 0 6 10 10 23 10 18
0 19 -2 7 -10z"/>
</g>
</svg>
